# xmcd CD database file
#
# Track frame offsets:
#	150
#	17537
#	36193
#	69610
#	94309
#	111614
#	136443
#	158270
#	173954
#	193859
#	236570
#	272550
#	293870
#
# Disc length: 4128 seconds
#
# Revision: 0
# Processed by: cddbd v1.4PL0 Copyright (c) Steve Scherf et al.
# Submitted via: CDex 1.50
#
DISCID=ba101e0d
DTITLE=The Fabulous Bluecats - A Taste Of Tasmania
DYEAR=1995
DGENRE=Blues
TTITLE0=Shake Your Money Maker
TTITLE1=Can't Be Satisfied
TTITLE2=Smokestack Lightning
TTITLE3=Boom Boom Boom Boom
TTITLE4=Ice Cream Man
TTITLE5=Pledging My Time
TTITLE6=Pretty Thing
TTITLE7=Got Love If You Want It
TTITLE8=Down The Road Apiece
TTITLE9=I Just Want To Make Love To You
TTITLE10=Hip Shake
TTITLE11=Got My Mojo Working
TTITLE12=Mannish Boy
EXTD=YEAR: 1995
EXTT0=
EXTT1=
EXTT2=
EXTT3=
EXTT4=
EXTT5=
EXTT6=
EXTT7=
EXTT8=
EXTT9=
EXTT10=
EXTT11=
EXTT12=
PLAYORDER=
